<?xml version="1.0" standalone="no"?>
<!DOCTYPE svg PUBLIC "-//W3C//DTD SVG 20010904//EN"
 "http://www.w3.org/TR/2001/REC-SVG-20010904/DTD/svg10.dtd">
<svg version="1.0" xmlns="http://www.w3.org/2000/svg"
 width="853.000000pt" height="853.000000pt" viewBox="0 0 853.000000 853.000000"
 preserveAspectRatio="xMidYMid meet">
<metadata>
Created by potrace 1.14, written by Peter Selinger 2001-2017
</metadata>
<g transform="translate(0.000000,853.000000) scale(0.100000,-0.100000)"
fill="#000000" stroke="none">
<path d="M4802 5375 c-35 -29 -35 -53 -1 -98 38 -52 28 -177 -26 -302 -36 -85
-147 -304 -163 -321 -10 -11 -45 -53 -78 -94 -125 -152 -233 -254 -329 -307
-107 -60 -141 -76 -220 -103 -91 -32 -128 -35 -148 -12 -28 31 -127 239 -157
331 -59 180 -112 306 -142 334 -27 26 -32 27 -51 14 -16 -11 -26 -35 -39 -97
-22 -103 -43 -161 -118 -313 -53 -109 -163 -304 -179 -317 -3 -3 -22 -30 -43
-60 -20 -30 -45 -66 -56 -80 -11 -14 -53 -68 -92 -120 -39 -52 -78 -104 -88
-115 -9 -11 -42 -51 -72 -90 -31 -38 -108 -122 -171 -185 -244 -244 -313 -300
-489 -391 -47 -24 -87 -47 -90 -50 -3 -3 -63 -35 -134 -70 -142 -71 -195 -111
-177 -133 14 -17 96 -12 161 10 53 18 150 67 234 118 33 20 64 36 68 36 5 0
34 16 64 35 30 19 58 35 63 35 5 0 11 3 13 8 2 4 32 32 68 62 69 58 104 90
213 190 37 35 75 70 85 79 9 9 44 48 77 86 33 39 68 79 78 90 10 11 35 43 56
70 331 443 389 534 581 914 l22 44 44 -104 c64 -149 66 -154 170 -362 52 -104
104 -203 116 -220 13 -18 31 -48 42 -67 17 -32 108 -164 138 -200 28 -33 91
-78 104 -73 17 6 11 22 -50 123 -70 117 -64 107 -129 220 -60 106 -66 131 -32
136 76 10 102 18 156 44 89 43 180 102 268 175 79 66 294 296 317 340 7 15 37
65 64 111 46 75 120 223 126 249 1 6 8 24 15 40 7 17 13 32 14 35 10 42 29 80
38 77 9 -2 147 -261 145 -270 -1 -4 276 -559 338 -677 37 -69 89 -163 117
-210 27 -47 55 -94 61 -105 14 -25 128 -198 136 -205 3 -3 39 -50 80 -105 41
-55 79 -105 85 -111 5 -6 26 -31 46 -55 94 -114 117 -140 192 -222 94 -103
277 -284 390 -385 63 -56 186 -145 357 -259 219 -145 227 -150 242 -135 9 9 7
16 -6 31 -15 17 -166 123 -235 166 -9 6 -18 12 -21 15 -3 3 -21 17 -40 31 -19
15 -45 35 -56 45 -12 11 -36 30 -54 44 -18 14 -49 39 -69 55 -53 44 -418 411
-473 476 -26 31 -58 67 -70 81 -13 14 -45 54 -73 89 -27 35 -52 66 -55 69 -18
17 -108 143 -175 245 -44 66 -83 122 -87 123 -5 2 -8 8 -8 14 0 5 -9 22 -20
38 -69 97 -321 580 -453 870 -55 121 -130 278 -159 335 -41 79 -164 283 -180
298 -22 21 -45 18 -76 -8z"/>
</g>
</svg>
